<svg height="512" viewBox="0 0 512 512" width="512" xmlns="http://www.w3.org/2000/svg" xmlns:xlink="http://www.w3.org/1999/xlink"><linearGradient id="a" gradientUnits="userSpaceOnUse" x1="28.311" x2="526.237" y1="515.689" y2="17.763" data-name="New Gradient Swatch 1"><stop offset="0" stop-color="#003f8a"/><stop offset=".518" stop-color="#00d7df"/><stop offset="1" stop-color="#006df0"/></linearGradient><linearGradient id="b" x1="-5.689" x2="492.237" xlink:href="#a" y1="481.689" y2="-16.237"/><linearGradient id="c" x1="36.311" x2="534.237" xlink:href="#a" y1="523.689" y2="25.763"/><linearGradient id="d" x1="-73.689" x2="424.237" xlink:href="#a" y1="413.689" y2="-84.237"/><linearGradient id="e" x1="-61.689" x2="436.237" xlink:href="#a" y1="425.689" y2="-72.237"/><linearGradient id="f" x1="-49.689" x2="448.237" xlink:href="#a" y1="437.689" y2="-60.237"/><linearGradient id="g" x1="-57.689" x2="440.237" xlink:href="#a" y1="429.689" y2="-68.237"/><linearGradient id="h" x1="-21.689" x2="476.237" xlink:href="#a" y1="465.689" y2="-32.237"/><linearGradient id="i" x1="-17.689" x2="480.237" xlink:href="#a" y1="469.689" y2="-28.237"/><linearGradient id="k" x1="6.311" x2="504.237" xlink:href="#a" y1="493.689" y2="-4.237"/><linearGradient id="l" x1="-1.689" x2="496.237" xlink:href="#a" y1="485.689" y2="-12.237"/><linearGradient id="m" x1="34.311" x2="532.237" xlink:href="#a" y1="521.689" y2="23.763"/><linearGradient id="n" x1="98.311" x2="596.237" xlink:href="#a" y1="585.689" y2="87.763"/><linearGradient id="o" x1="110.311" x2="608.237" xlink:href="#a" y1="597.689" y2="99.763"/><linearGradient id="p" x1="122.311" x2="620.237" xlink:href="#a" y1="609.689" y2="111.763"/><linearGradient id="q" x1="114.311" x2="612.237" xlink:href="#a" y1="601.689" y2="103.763"/><linearGradient id="r" x1="150.311" x2="648.237" xlink:href="#a" y1="637.689" y2="139.763"/><g><path d="m472 144a112 112 0 0 0 -224 0h-208a32.036 32.036 0 0 0 -32 32v224a32.036 32.036 0 0 0 32 32h179.72l29.62 44.44a8.01 8.01 0 0 0 13.32 0l29.62-44.44h179.72a32.036 32.036 0 0 0 32-32v-224a32.036 32.036 0 0 0 -32-32zm-112-96a96 96 0 1 1 -96 96 96.115 96.115 0 0 1 96-96zm128 352a16.021 16.021 0 0 1 -16 16h-184a8.033 8.033 0 0 0 -6.66 3.56l-25.34 38.02-25.34-38.02a8.033 8.033 0 0 0 -6.66-3.56h-184a16.021 16.021 0 0 1 -16-16v-224a16.021 16.021 0 0 1 16-16h209.15a112 112 0 0 0 221.7 0h1.15a16.021 16.021 0 0 1 16 16z" fill="url(#a)"/><path d="m344 168h32a8 8 0 0 0 8-8v-88a8 8 0 0 0 -8-8h-32a8 8 0 0 0 -8 8v88a8 8 0 0 0 8 8zm8-88h16v72h-16z" fill="url(#b)"/><path d="m344 224h32a8 8 0 0 0 8-8v-32a8 8 0 0 0 -8-8h-32a8 8 0 0 0 -8 8v32a8 8 0 0 0 8 8zm8-32h16v16h-16z" fill="url(#c)"/><path d="m224 192h-168a8 8 0 0 0 0 16h168a8 8 0 0 0 0-16z" fill="url(#d)"/><path d="m224 216h-168a8 8 0 0 0 0 16h168a8 8 0 0 0 0-16z" fill="url(#e)"/><path d="m224 240h-168a8 8 0 0 0 0 16h168a8 8 0 0 0 0-16z" fill="url(#f)"/><path d="m56 280h88a8 8 0 0 0 0-16h-88a8 8 0 0 0 0 16z" fill="url(#g)"/><path d="m176 280a8 8 0 0 0 0-16h-8a8 8 0 0 0 0 16z" fill="url(#h)"/><path d="m224 304h-168a8 8 0 0 0 0 16h168a8 8 0 0 0 0-16z" fill="url(#i)"/><path d="m224 328h-168a8 8 0 0 0 0 16h168a8 8 0 0 0 0-16z" fill="url(#b)"/><path d="m224 352h-168a8 8 0 0 0 0 16h168a8 8 0 0 0 0-16z" fill="url(#k)"/><path d="m144 376h-88a8 8 0 0 0 0 16h88a8 8 0 0 0 0-16z" fill="url(#l)"/><path d="m176 376h-8a8 8 0 0 0 0 16h8a8 8 0 0 0 0-16z" fill="url(#m)"/><path d="m456 304h-168a8 8 0 0 0 0 16h168a8 8 0 0 0 0-16z" fill="url(#n)"/><path d="m456 328h-168a8 8 0 0 0 0 16h168a8 8 0 0 0 0-16z" fill="url(#o)"/><path d="m456 352h-168a8 8 0 0 0 0 16h168a8 8 0 0 0 0-16z" fill="url(#p)"/><path d="m376 376h-88a8 8 0 0 0 0 16h88a8 8 0 0 0 0-16z" fill="url(#q)"/><path d="m408 376h-8a8 8 0 0 0 0 16h8a8 8 0 0 0 0-16z" fill="url(#r)"/></g></svg>