<svg id="Capa_1" enable-background="new 0 0 512 512" height="512" viewBox="0 0 512 512" width="512" xmlns="http://www.w3.org/2000/svg"><g fill="#b95e4b"><path d="m167.36 202.935c7.179 18.967 10.264 37.034-2.189 41.747s-39.149-4.417-46.328-23.384.516-39.457 12.97-44.171 28.368 6.842 35.547 25.808z"/><path d="m344.64 202.935c-7.179 18.967-10.264 37.034 2.189 41.747s39.149-4.417 46.328-23.384-.516-39.457-12.97-44.171-28.368 6.842-35.547 25.808z"/><path d="m285.516 293.155h-59.031c-39.189 0-70.957-31.769-70.957-70.957v-75.628c0-39.189 31.769-70.957 70.957-70.957h59.031c39.189 0 70.957 31.769 70.957 70.957v75.627c0 39.189-31.769 70.958-70.957 70.958z"/></g><path d="m285.726 75.613h-35.893c39.072 0 70.747 31.675 70.747 70.747v76.047c0 39.073-31.675 70.747-70.747 70.747h35.893c39.072 0 70.747-31.675 70.747-70.747v-76.047c0-39.072-31.675-70.747-70.747-70.747z" fill="#a24e3d"/><path d="m344.64 202.935c-7.179 18.967-10.264 37.034 2.189 41.747s39.149-4.417 46.328-23.384-.516-39.457-12.97-44.171-28.368 6.842-35.547 25.808z" fill="#a24e3d"/><path d="m479.418 241.334h-182.51c-17.196 0-32.291 8.953-40.908 22.445-8.618-13.491-23.712-22.445-40.908-22.445h-182.51c-2.627 0-4.757 2.13-4.757 4.757v253.674c0 2.627 2.13 4.757 4.757 4.757h446.836c2.627 0 4.757-2.13 4.757-4.757v-253.674c0-2.627-2.13-4.757-4.757-4.757z" fill="#eedfda"/><path d="m479.418 241.334h-25.708c2.627 0 4.757 2.13 4.757 4.757v253.674c0 2.627-2.13 4.757-4.757 4.757h25.708c2.627 0 4.757-2.13 4.757-4.757v-253.674c0-2.627-2.13-4.757-4.757-4.757z" fill="#ded0cb"/><path d="m286.049 263.577c-7.263 0-14.091 2.959-19.515 7.788-2.8 2.493-6.487 4.008-10.534 4.008s-7.734-1.515-10.534-4.008c-5.424-4.829-12.253-7.788-19.515-7.788h-209.566v235.95c0 2.759 2.236 4.995 4.995 4.995h469.24c2.759 0 4.995-2.236 4.995-4.995v-235.95z" fill="#304ec7"/><path d="m446.953 263.577v188.935c0 2.759-2.236 4.995-4.995 4.995h-425.573v42.02c0 2.759 2.237 4.995 4.995 4.995h469.24c2.759 0 4.995-2.236 4.995-4.995v-235.95z" fill="#2740ad"/><path d="m233.269 504.522h45.462v-239.926c-4.486 1.252-8.644 3.606-12.197 6.769-2.8 2.493-6.488 4.008-10.534 4.008s-7.734-1.515-10.534-4.008c-3.553-3.164-7.711-5.517-12.197-6.769z" fill="#4f66ce"/><path d="m233.269 457.507h45.462v47.015h-45.462z" fill="#304ec7"/><path d="m305.338 7.478c-8.516 0-16.488 4.358-20.934 11.62-8.124 13.269-17.893 22.679-28.404 22.679s-20.28-9.41-28.404-22.679c-4.446-7.263-12.419-11.62-20.934-11.62h-.982c-11.098 0-20.831 7.409-23.785 18.107l-34.328 124.317h216.864l-35.357-124.491c-3.014-10.611-12.705-17.933-23.736-17.933z" fill="#a698a6"/><path d="m329.074 25.411c-3.014-10.611-12.705-17.933-23.736-17.933-6.289 0-12.278 2.383-16.773 6.552l13.735 48.359c5.946 20.934-9.778 41.747-31.541 41.747h-110.553l-12.637 45.766h216.864z" fill="#8f818f"/><path d="m420.209 163.624h-328.418c-6.43 0-11.642-5.212-11.642-11.642v-2.879c0-6.43 5.212-11.642 11.642-11.642h328.417c6.43 0 11.642 5.212 11.642 11.642v2.879c.001 6.43-5.212 11.642-11.641 11.642z" fill="#a698a6"/><path d="m418.769 137.461h-38.059c7.225 0 13.082 5.857 13.082 13.082s-5.857 13.082-13.082 13.082h38.059c7.225 0 13.082-5.857 13.082-13.082s-5.857-13.082-13.082-13.082z" fill="#8f818f"/><circle cx="200.766" cy="201.981" r="15.705"/><circle cx="311.234" cy="201.981" r="15.705"/><path d="m495.615 256.099h-3.962v-10.008c0-6.746-5.489-12.235-12.235-12.235h-84.902c2.407-3.092 4.313-6.422 5.634-9.911 3.967-10.481 4.324-21.971 1.006-32.354-3.055-9.559-8.869-16.885-16.139-20.49h35.226c10.524 0 19.086-8.561 19.086-19.085v-2.948c0-10.524-8.562-19.086-19.086-19.086h-53.695l-30.28-106.613c-3.908-13.759-16.627-23.369-30.93-23.369-11.11 0-21.575 5.822-27.311 15.194-7.544 12.32-15.366 19.106-22.027 19.106s-14.483-6.786-22.026-19.105c-5.737-9.373-16.202-15.195-27.312-15.195h-.981c-5.709 0-11.327 1.524-16.248 4.407-3.564 2.088-4.76 6.669-2.672 10.232s6.669 4.76 10.231 2.672c2.63-1.541 5.635-2.355 8.688-2.355h.981c5.94 0 11.518 3.083 14.556 8.047 10.666 17.42 22.368 26.253 34.782 26.253 12.413 0 24.116-8.833 34.781-26.253 3.039-4.963 8.616-8.046 14.556-8.046 7.65 0 14.453 5.14 16.543 12.499l29.12 102.528h-40.662c-4.13 0-7.478 3.348-7.478 7.478s3.348 7.478 7.478 7.478h109.904c2.277 0 4.13 1.853 4.13 4.13v2.948c0 2.277-1.853 4.13-4.13 4.13h-328.484c-2.277 0-4.13-1.852-4.13-4.13v-2.948c0-2.277 1.853-4.13 4.13-4.13h184.184c4.13 0 7.478-3.348 7.478-7.478s-3.348-7.478-7.478-7.478h-115.115l23.617-85.529c1.099-3.981-1.237-8.099-5.218-9.198-3.986-1.103-8.1 1.238-9.198 5.218l-24.716 89.509h-53.554c-10.524 0-19.086 8.562-19.086 19.086v2.948c0 10.524 8.561 19.085 19.086 19.085h35.226c-7.271 3.606-13.085 10.931-16.14 20.49-3.317 10.382-2.96 21.873 1.007 32.354 1.329 3.51 3.232 6.832 5.621 9.911h-84.889c-6.747 0-12.235 5.489-12.235 12.235v10.008h-3.962c-4.13 0-7.478 3.348-7.478 7.478v235.95c0 6.878 5.596 12.473 12.474 12.473h469.239c6.877 0 12.473-5.596 12.473-12.473v-235.95c0-4.132-3.348-7.48-7.478-7.48zm-18.918 0h-190.648c-3.094 0-6.175.436-9.178 1.262-3.406.872-6.782 2.43-9.758 4.272 7.679-8.135 18.362-12.821 29.795-12.821h179.789zm-350.859-37.447c-2.737-7.23-3.01-15.433-.749-22.507 1.902-5.948 5.492-10.555 9.372-12.023 4.456-1.685 10.389.467 15.876 5.758 2.159 2.081 5.351 2.672 8.116 1.499 2.76-1.173 4.553-3.883 4.553-6.882v-13.394h185.991v13.394c0 3 1.793 5.709 4.553 6.882 2.764 1.174 5.957.583 8.116-1.499 5.487-5.291 11.423-7.443 15.876-5.758 3.879 1.468 7.47 6.075 9.371 12.023 2.261 7.074 1.988 15.278-.748 22.506-2.197 5.804-7.23 11.086-14.17 14.872-.189.103-.368.217-.544.333h-74.541c-15.73 0-30.417 6.495-40.908 17.758-10.491-11.263-25.178-17.758-40.908-17.758h-74.459c-7.192-3.765-12.541-9.243-14.797-15.204zm-90.535 30.16h179.789c11.433 0 22.116 4.686 29.795 12.821-2.99-1.851-6.342-3.395-9.759-4.272-3.003-.826-6.084-1.262-9.177-1.262h-190.648zm205.443 248.232v-107.25c0-4.13-3.347-7.478-7.478-7.478-4.13 0-7.478 3.348-7.478 7.478v107.25h-201.927v-225.99h201.928v84.206c0 4.13 3.347 7.478 7.478 7.478 4.13 0 7.478-3.348 7.478-7.478v-78.088c8.624 7.457 21.882 7.457 30.507 0v219.872zm247.391 0h-201.928v-225.99h201.928z"/><path d="m352.929 359.407h55.562c4.13 0 7.478-3.348 7.478-7.478s-3.347-7.478-7.478-7.478h-55.562c-4.13 0-7.478 3.348-7.478 7.478s3.348 7.478 7.478 7.478z"/><path d="m408.491 374.924h-55.562c-4.13 0-7.478 3.348-7.478 7.478s3.347 7.478 7.478 7.478h55.562c4.13 0 7.478-3.348 7.478-7.478-.001-4.13-3.348-7.478-7.478-7.478z"/></svg>